# xmcd
#
# Track frame offsets:
#	150
#	16192
#	33545
#	48987
#	69320
#	93432
#	116137
#	133462
#	150987
#	169060
#	191587
#	209205
#
# Disc length: 2989 seconds
#
# Revision: 1
# Processed by: cddbd v1.5.1PL0 Copyright (c) Steve Scherf et al.
# Submitted via: CDex 1.50Beta5
#
DISCID=a90bab0c
DTITLE=さまざまなアーティスト - 懐かしのスクール・デイズvol.8
DYEAR=1900
DGENRE=Rock
TTITLE0=Take Me Home Tonight
TTITLE1=Oh Sherrie
TTITLE2=Walk Like An Egyptian
TTITLE3=Freddie's Dead
TTITLE4=Don't Believe The Hype
TTITLE5=Hide Out
TTITLE6=And We Danced
TTITLE7=The Dock Of The Bay
TTITLE8=The Warrior
TTITLE9=Africa
TTITLE10=Hey Baby
TTITLE11=Open Arms
EXTD=
EXTT0=
EXTT1=
EXTT2=
EXTT3=
EXTT4=
EXTT5=
EXTT6=
EXTT7=
EXTT8=
EXTT9=
EXTT10=
EXTT11=
PLAYORDER=
